# xmcd
#
# Track frame offsets:
#	150
#	12443
#	25726
#	38434
#	49990
#	62248
#	74538
#	85819
#	98372
#	109925
#	123435
#	135951
#	148486
#	159252
#	170230
#	183640
#	196078
#	207399
#	220724
#	230577
#	241390
#	252401
#	262719
#	274167
#	285452
#	294195
#	303558
#	315691
#	328764
#	340575
#
# Disc length: 4696 seconds
#
# Revision: 5
# Processed by: cddbd v1.5.2PL0 Copyright (c) Steve Scherf et al.
# Submitted via: EasyCDDAExtractor 15.3.0.1
#
DISCID=b912561e
DTITLE=Bobby Bare - The All-American Boy_3 [1964-65]
DYEAR=1900
DGENRE=Country
TTITLE0=Bobby Bare - Long Way To Tennessee 1964
TTITLE1=Bobby Bare - Long Black Limousine 1964
TTITLE2=Bobby Bare - Down In Mexico 1964
TTITLE3=Bobby Bare - I Was Coming Home To You 1994
TTITLE4=Bobby Bare - Another Bridge To Burn 1964
TTITLE5=Bobby Bare - I've Lived A Lot In My Time 1964
TTITLE6=Bobby Bare - He Was A Friend Of Mine 1964
TTITLE7=Bobby Bare - Takem Me Home 1964
TTITLE8=Bobby Bare - When I'm  Gone 1964
TTITLE9=Bobby Bare - Sweeter Than The Flowers 1964
TTITLE10=Bobby Bare - I Was Coming Home To You 1964
TTITLE11=Bobby Bare - Four Strong Winds 1964
TTITLE12=Bobby Bare - When The Wind Blows In Chicago 1964
TTITLE13=Bobby Bare - Just To Satisfy You 1964
TTITLE14=Bobby Bare and Skeeter Davies - Let It Be Me (& Skeeter Davis) 1964
TTITLE15=Bobby Bare - In The Misty Moonlight (& Skeeter Davis) 1964
TTITLE16=Bobby Bare - I Love You (& Skeeter Davis) 1964
TTITLE17=Bobby Bare - Too Used To Being With You (& Skeeter Davis) 1964
TTITLE18=Bobby Bare - Together Again (& Skeeter Davis) 1964
TTITLE19=Bobby Bare - We'll Sing In The Sunshine (& Skeeter Davis) 1964
TTITLE20=Bobby Bare - Out Of Our Minds (& Skeeter Davis) 1964
TTITLE21=Bobby Bare - I Don't Care (& Skeeter Davis) 1964
TTITLE22=Bobby Bare - That's All I Want From You (& Skeeter Davis) 1964
TTITLE23=Bobby Bare - Invisible Tears (& Skeeter Davis) 1964
TTITLE24=Bobby Bare - A Dear John Letter (& Skeeter Davis) 1964
TTITLE25=Bobby Bare - Trou Love (& Skeeter Davis) 1964
TTITLE26=Bobby Bare - Rosalie (German) 1965
TTITLE27=Bobby Bare - Alle Glauben Daß Ich Glücklich Bin (German) 1965
TTITLE28=Bobby Bare - Times Are Gettin' Hard 1965
TTITLE29=Bobby Bare - I'm A Long Way From Home 1965
EXTD=
EXTT0=
EXTT1=
EXTT2=
EXTT3=
EXTT4=
EXTT5=
EXTT6=
EXTT7=
EXTT8=
EXTT9=
EXTT10=
EXTT11=
EXTT12=
EXTT13=
EXTT14=
EXTT15=
EXTT16=
EXTT17=
EXTT18=
EXTT19=
EXTT20=
EXTT21=
EXTT22=
EXTT23=
EXTT24=
EXTT25=
EXTT26=
EXTT27=
EXTT28=
EXTT29=
PLAYORDER=
